<?xml version="1.0" encoding="utf-8"?>
<svg xmlns="http://www.w3.org/2000/svg" xmlns:xlink="http://www.w3.org/1999/xlink" width="600" height="400" viewBox="0 0 2400 1600">
<defs>
  <clipPath id="clip260">
    <rect x="0" y="0" width="2400" height="1600"/>
  </clipPath>
</defs>
<path clip-path="url(#clip260)" d="M0 1600 L2400 1600 L2400 0 L0 0  Z" fill="#ffffff" fill-rule="evenodd" fill-opacity="1"/>
<defs>
  <clipPath id="clip261">
    <rect x="480" y="0" width="1681" height="1600"/>
  </clipPath>
</defs>
<path clip-path="url(#clip260)" d="M257.366 1423.18 L2352.76 1423.18 L2352.76 47.2441 L257.366 47.2441  Z" fill="#ffffff" fill-rule="evenodd" fill-opacity="1"/>
<defs>
  <clipPath id="clip262">
    <rect x="257" y="47" width="2096" height="1377"/>
  </clipPath>
</defs>
<polyline clip-path="url(#clip262)" style="stroke:#000000; stroke-linecap:round; stroke-linejoin:round; stroke-width:2; stroke-opacity:0.1; fill:none" points="316.67,1423.18 316.67,47.2441 "/>
<polyline clip-path="url(#clip262)" style="stroke:#000000; stroke-linecap:round; stroke-linejoin:round; stroke-width:2; stroke-opacity:0.1; fill:none" points="810.865,1423.18 810.865,47.2441 "/>
<polyline clip-path="url(#clip262)" style="stroke:#000000; stroke-linecap:round; stroke-linejoin:round; stroke-width:2; stroke-opacity:0.1; fill:none" points="1305.06,1423.18 1305.06,47.2441 "/>
<polyline clip-path="url(#clip262)" style="stroke:#000000; stroke-linecap:round; stroke-linejoin:round; stroke-width:2; stroke-opacity:0.1; fill:none" points="1799.26,1423.18 1799.26,47.2441 "/>
<polyline clip-path="url(#clip262)" style="stroke:#000000; stroke-linecap:round; stroke-linejoin:round; stroke-width:2; stroke-opacity:0.1; fill:none" points="2293.45,1423.18 2293.45,47.2441 "/>
<polyline clip-path="url(#clip262)" style="stroke:#000000; stroke-linecap:round; stroke-linejoin:round; stroke-width:2; stroke-opacity:0.1; fill:none" points="257.366,1197.99 2352.76,1197.99 "/>
<polyline clip-path="url(#clip262)" style="stroke:#000000; stroke-linecap:round; stroke-linejoin:round; stroke-width:2; stroke-opacity:0.1; fill:none" points="257.366,966.602 2352.76,966.602 "/>
<polyline clip-path="url(#clip262)" style="stroke:#000000; stroke-linecap:round; stroke-linejoin:round; stroke-width:2; stroke-opacity:0.1; fill:none" points="257.366,735.212 2352.76,735.212 "/>
<polyline clip-path="url(#clip262)" style="stroke:#000000; stroke-linecap:round; stroke-linejoin:round; stroke-width:2; stroke-opacity:0.1; fill:none" points="257.366,503.822 2352.76,503.822 "/>
<polyline clip-path="url(#clip262)" style="stroke:#000000; stroke-linecap:round; stroke-linejoin:round; stroke-width:2; stroke-opacity:0.1; fill:none" points="257.366,272.432 2352.76,272.432 "/>
<polyline clip-path="url(#clip260)" style="stroke:#000000; stroke-linecap:round; stroke-linejoin:round; stroke-width:4; stroke-opacity:1; fill:none" points="257.366,1423.18 2352.76,1423.18 "/>
<polyline clip-path="url(#clip260)" style="stroke:#000000; stroke-linecap:round; stroke-linejoin:round; stroke-width:4; stroke-opacity:1; fill:none" points="316.67,1423.18 316.67,1404.28 "/>
<polyline clip-path="url(#clip260)" style="stroke:#000000; stroke-linecap:round; stroke-linejoin:round; stroke-width:4; stroke-opacity:1; fill:none" points="810.865,1423.18 810.865,1404.28 "/>
<polyline clip-path="url(#clip260)" style="stroke:#000000; stroke-linecap:round; stroke-linejoin:round; stroke-width:4; stroke-opacity:1; fill:none" points="1305.06,1423.18 1305.06,1404.28 "/>
<polyline clip-path="url(#clip260)" style="stroke:#000000; stroke-linecap:round; stroke-linejoin:round; stroke-width:4; stroke-opacity:1; fill:none" points="1799.26,1423.18 1799.26,1404.28 "/>
<polyline clip-path="url(#clip260)" style="stroke:#000000; stroke-linecap:round; stroke-linejoin:round; stroke-width:4; stroke-opacity:1; fill:none" points="2293.45,1423.18 2293.45,1404.28 "/>
<path clip-path="url(#clip260)" d="M263.198 1468.75 L292.873 1468.75 L292.873 1472.69 L263.198 1472.69 L263.198 1468.75 Z" fill="#000000" fill-rule="nonzero" fill-opacity="1" /><path clip-path="url(#clip260)" d="M303.776 1481.64 L311.415 1481.64 L311.415 1455.28 L303.105 1456.95 L303.105 1452.69 L311.369 1451.02 L316.045 1451.02 L316.045 1481.64 L323.683 1481.64 L323.683 1485.58 L303.776 1485.58 L303.776 1481.64 Z" fill="#000000" fill-rule="nonzero" fill-opacity="1" /><path clip-path="url(#clip260)" d="M333.128 1479.7 L338.012 1479.7 L338.012 1485.58 L333.128 1485.58 L333.128 1479.7 Z" fill="#000000" fill-rule="nonzero" fill-opacity="1" /><path clip-path="url(#clip260)" d="M358.197 1454.1 Q354.586 1454.1 352.757 1457.66 Q350.952 1461.2 350.952 1468.33 Q350.952 1475.44 352.757 1479.01 Q354.586 1482.55 358.197 1482.55 Q361.831 1482.55 363.637 1479.01 Q365.466 1475.44 365.466 1468.33 Q365.466 1461.2 363.637 1457.66 Q361.831 1454.1 358.197 1454.1 M358.197 1450.39 Q364.007 1450.39 367.063 1455 Q370.141 1459.58 370.141 1468.33 Q370.141 1477.06 367.063 1481.67 Q364.007 1486.25 358.197 1486.25 Q352.387 1486.25 349.308 1481.67 Q346.253 1477.06 346.253 1468.33 Q346.253 1459.58 349.308 1455 Q352.387 1450.39 358.197 1450.39 Z" fill="#000000" fill-rule="nonzero" fill-opacity="1" /><path clip-path="url(#clip260)" d="M757.891 1468.75 L787.567 1468.75 L787.567 1472.69 L757.891 1472.69 L757.891 1468.75 Z" fill="#000000" fill-rule="nonzero" fill-opacity="1" /><path clip-path="url(#clip260)" d="M807.659 1454.1 Q804.048 1454.1 802.219 1457.66 Q800.414 1461.2 800.414 1468.33 Q800.414 1475.44 802.219 1479.01 Q804.048 1482.55 807.659 1482.55 Q811.294 1482.55 813.099 1479.01 Q814.928 1475.44 814.928 1468.33 Q814.928 1461.2 813.099 1457.66 Q811.294 1454.1 807.659 1454.1 M807.659 1450.39 Q813.469 1450.39 816.525 1455 Q819.604 1459.58 819.604 1468.33 Q819.604 1477.06 816.525 1481.67 Q813.469 1486.25 807.659 1486.25 Q801.849 1486.25 798.77 1481.67 Q795.715 1477.06 795.715 1468.33 Q795.715 1459.58 798.77 1455 Q801.849 1450.39 807.659 1450.39 Z" fill="#000000" fill-rule="nonzero" fill-opacity="1" /><path clip-path="url(#clip260)" d="M827.821 1479.7 L832.705 1479.7 L832.705 1485.58 L827.821 1485.58 L827.821 1479.7 Z" fill="#000000" fill-rule="nonzero" fill-opacity="1" /><path clip-path="url(#clip260)" d="M842.937 1451.02 L861.293 1451.02 L861.293 1454.96 L847.219 1454.96 L847.219 1463.43 Q848.238 1463.08 849.256 1462.92 Q850.275 1462.73 851.293 1462.73 Q857.08 1462.73 860.46 1465.9 Q863.84 1469.08 863.84 1474.49 Q863.84 1480.07 860.367 1483.17 Q856.895 1486.25 850.576 1486.25 Q848.4 1486.25 846.131 1485.88 Q843.886 1485.51 841.479 1484.77 L841.479 1480.07 Q843.562 1481.2 845.784 1481.76 Q848.006 1482.32 850.483 1482.32 Q854.488 1482.32 856.826 1480.21 Q859.164 1478.1 859.164 1474.49 Q859.164 1470.88 856.826 1468.77 Q854.488 1466.67 850.483 1466.67 Q848.608 1466.67 846.733 1467.08 Q844.881 1467.5 842.937 1468.38 L842.937 1451.02 Z" fill="#000000" fill-rule="nonzero" fill-opacity="1" /><path clip-path="url(#clip260)" d="M1282.45 1454.1 Q1278.83 1454.1 1277.01 1457.66 Q1275.2 1461.2 1275.2 1468.33 Q1275.2 1475.44 1277.01 1479.01 Q1278.83 1482.55 1282.45 1482.55 Q1286.08 1482.55 1287.89 1479.01 Q1289.71 1475.44 1289.71 1468.33 Q1289.71 1461.2 1287.89 1457.66 Q1286.08 1454.1 1282.45 1454.1 M1282.45 1450.39 Q1288.26 1450.39 1291.31 1455 Q1294.39 1459.58 1294.39 1468.33 Q1294.39 1477.06 1291.31 1481.67 Q1288.26 1486.25 1282.45 1486.25 Q1276.64 1486.25 1273.56 1481.67 Q1270.5 1477.06 1270.5 1468.33 Q1270.5 1459.58 1273.56 1455 Q1276.64 1450.39 1282.45 1450.39 Z" fill="#000000" fill-rule="nonzero" fill-opacity="1" /><path clip-path="url(#clip260)" d="M1302.61 1479.7 L1307.49 1479.7 L1307.49 1485.58 L1302.61 1485.58 L1302.61 1479.7 Z" fill="#000000" fill-rule="nonzero" fill-opacity="1" /><path clip-path="url(#clip260)" d="M1327.68 1454.1 Q1324.07 1454.1 1322.24 1457.66 Q1320.43 1461.2 1320.43 1468.33 Q1320.43 1475.44 1322.24 1479.01 Q1324.07 1482.55 1327.68 1482.55 Q1331.31 1482.55 1333.12 1479.01 Q1334.95 1475.44 1334.95 1468.33 Q1334.95 1461.2 1333.12 1457.66 Q1331.31 1454.1 1327.68 1454.1 M1327.68 1450.39 Q1333.49 1450.39 1336.54 1455 Q1339.62 1459.58 1339.62 1468.33 Q1339.62 1477.06 1336.54 1481.67 Q1333.49 1486.25 1327.68 1486.25 Q1321.87 1486.25 1318.79 1481.67 Q1315.73 1477.06 1315.73 1468.33 Q1315.73 1459.58 1318.79 1455 Q1321.87 1450.39 1327.68 1450.39 Z" fill="#000000" fill-rule="nonzero" fill-opacity="1" /><path clip-path="url(#clip260)" d="M1777.14 1454.1 Q1773.53 1454.1 1771.7 1457.66 Q1769.89 1461.2 1769.89 1468.33 Q1769.89 1475.44 1771.7 1479.01 Q1773.53 1482.55 1777.14 1482.55 Q1780.77 1482.55 1782.58 1479.01 Q1784.41 1475.44 1784.41 1468.33 Q1784.41 1461.2 1782.58 1457.66 Q1780.77 1454.1 1777.14 1454.1 M1777.14 1450.39 Q1782.95 1450.39 1786 1455 Q1789.08 1459.58 1789.08 1468.33 Q1789.08 1477.06 1786 1481.67 Q1782.95 1486.25 1777.14 1486.25 Q1771.33 1486.25 1768.25 1481.67 Q1765.19 1477.06 1765.19 1468.33 Q1765.19 1459.58 1768.25 1455 Q1771.33 1450.39 1777.14 1450.39 Z" fill="#000000" fill-rule="nonzero" fill-opacity="1" /><path clip-path="url(#clip260)" d="M1797.3 1479.7 L1802.18 1479.7 L1802.18 1485.58 L1797.3 1485.58 L1797.3 1479.7 Z" fill="#000000" fill-rule="nonzero" fill-opacity="1" /><path clip-path="url(#clip260)" d="M1812.42 1451.02 L1830.77 1451.02 L1830.77 1454.96 L1816.7 1454.96 L1816.7 1463.43 Q1817.72 1463.08 1818.74 1462.92 Q1819.75 1462.73 1820.77 1462.73 Q1826.56 1462.73 1829.94 1465.9 Q1833.32 1469.08 1833.32 1474.49 Q1833.32 1480.07 1829.85 1483.17 Q1826.37 1486.25 1820.06 1486.25 Q1817.88 1486.25 1815.61 1485.88 Q1813.37 1485.51 1810.96 1484.77 L1810.96 1480.07 Q1813.04 1481.2 1815.26 1481.76 Q1817.49 1482.32 1819.96 1482.32 Q1823.97 1482.32 1826.31 1480.21 Q1828.64 1478.1 1828.64 1474.49 Q1828.64 1470.88 1826.31 1468.77 Q1823.97 1466.67 1819.96 1466.67 Q1818.09 1466.67 1816.21 1467.08 Q1814.36 1467.5 1812.42 1468.38 L1812.42 1451.02 Z" fill="#000000" fill-rule="nonzero" fill-opacity="1" /><path clip-path="url(#clip260)" d="M2260.61 1481.64 L2268.24 1481.64 L2268.24 1455.28 L2259.93 1456.95 L2259.93 1452.69 L2268.2 1451.02 L2272.87 1451.02 L2272.87 1481.64 L2280.51 1481.64 L2280.51 1485.58 L2260.61 1485.58 L2260.61 1481.64 Z" fill="#000000" fill-rule="nonzero" fill-opacity="1" /><path clip-path="url(#clip260)" d="M2289.96 1479.7 L2294.84 1479.7 L2294.84 1485.58 L2289.96 1485.58 L2289.96 1479.7 Z" fill="#000000" fill-rule="nonzero" fill-opacity="1" /><path clip-path="url(#clip260)" d="M2315.03 1454.1 Q2311.42 1454.1 2309.59 1457.66 Q2307.78 1461.2 2307.78 1468.33 Q2307.78 1475.44 2309.59 1479.01 Q2311.42 1482.55 2315.03 1482.55 Q2318.66 1482.55 2320.47 1479.01 Q2322.29 1475.44 2322.29 1468.33 Q2322.29 1461.2 2320.47 1457.66 Q2318.66 1454.1 2315.03 1454.1 M2315.03 1450.39 Q2320.84 1450.39 2323.89 1455 Q2326.97 1459.58 2326.97 1468.33 Q2326.97 1477.06 2323.89 1481.67 Q2320.84 1486.25 2315.03 1486.25 Q2309.22 1486.25 2306.14 1481.67 Q2303.08 1477.06 2303.08 1468.33 Q2303.08 1459.58 2306.14 1455 Q2309.22 1450.39 2315.03 1450.39 Z" fill="#000000" fill-rule="nonzero" fill-opacity="1" /><path clip-path="url(#clip260)" d="M1321.68 1532.4 L1308.78 1549.74 L1322.34 1568.04 L1315.44 1568.04 L1305.06 1554.04 L1294.68 1568.04 L1287.78 1568.04 L1301.62 1549.39 L1288.96 1532.4 L1295.86 1532.4 L1305.32 1545.1 L1314.77 1532.4 L1321.68 1532.4 Z" fill="#000000" fill-rule="nonzero" fill-opacity="1" /><polyline clip-path="url(#clip260)" style="stroke:#000000; stroke-linecap:round; stroke-linejoin:round; stroke-width:4; stroke-opacity:1; fill:none" points="257.366,1423.18 257.366,47.2441 "/>
<polyline clip-path="url(#clip260)" style="stroke:#000000; stroke-linecap:round; stroke-linejoin:round; stroke-width:4; stroke-opacity:1; fill:none" points="257.366,1197.99 276.264,1197.99 "/>
<polyline clip-path="url(#clip260)" style="stroke:#000000; stroke-linecap:round; stroke-linejoin:round; stroke-width:4; stroke-opacity:1; fill:none" points="257.366,966.602 276.264,966.602 "/>
<polyline clip-path="url(#clip260)" style="stroke:#000000; stroke-linecap:round; stroke-linejoin:round; stroke-width:4; stroke-opacity:1; fill:none" points="257.366,735.212 276.264,735.212 "/>
<polyline clip-path="url(#clip260)" style="stroke:#000000; stroke-linecap:round; stroke-linejoin:round; stroke-width:4; stroke-opacity:1; fill:none" points="257.366,503.822 276.264,503.822 "/>
<polyline clip-path="url(#clip260)" style="stroke:#000000; stroke-linecap:round; stroke-linejoin:round; stroke-width:4; stroke-opacity:1; fill:none" points="257.366,272.432 276.264,272.432 "/>
<path clip-path="url(#clip260)" d="M114.26 1198.44 L143.936 1198.44 L143.936 1202.38 L114.26 1202.38 L114.26 1198.44 Z" fill="#000000" fill-rule="nonzero" fill-opacity="1" /><path clip-path="url(#clip260)" d="M164.028 1183.79 Q160.417 1183.79 158.589 1187.36 Q156.783 1190.9 156.783 1198.03 Q156.783 1205.13 158.589 1208.7 Q160.417 1212.24 164.028 1212.24 Q167.663 1212.24 169.468 1208.7 Q171.297 1205.13 171.297 1198.03 Q171.297 1190.9 169.468 1187.36 Q167.663 1183.79 164.028 1183.79 M164.028 1180.09 Q169.839 1180.09 172.894 1184.69 Q175.973 1189.28 175.973 1198.03 Q175.973 1206.75 172.894 1211.36 Q169.839 1215.94 164.028 1215.94 Q158.218 1215.94 155.14 1211.36 Q152.084 1206.75 152.084 1198.03 Q152.084 1189.28 155.14 1184.69 Q158.218 1180.09 164.028 1180.09 Z" fill="#000000" fill-rule="nonzero" fill-opacity="1" /><path clip-path="url(#clip260)" d="M184.19 1209.39 L189.075 1209.39 L189.075 1215.27 L184.19 1215.27 L184.19 1209.39 Z" fill="#000000" fill-rule="nonzero" fill-opacity="1" /><path clip-path="url(#clip260)" d="M209.838 1196.13 Q206.69 1196.13 204.838 1198.28 Q203.01 1200.43 203.01 1204.18 Q203.01 1207.91 204.838 1210.09 Q206.69 1212.24 209.838 1212.24 Q212.986 1212.24 214.815 1210.09 Q216.667 1207.91 216.667 1204.18 Q216.667 1200.43 214.815 1198.28 Q212.986 1196.13 209.838 1196.13 M219.121 1181.48 L219.121 1185.73 Q217.361 1184.9 215.556 1184.46 Q213.774 1184.02 212.014 1184.02 Q207.385 1184.02 204.931 1187.15 Q202.5 1190.27 202.153 1196.59 Q203.519 1194.58 205.579 1193.51 Q207.639 1192.42 210.116 1192.42 Q215.324 1192.42 218.334 1195.6 Q221.366 1198.74 221.366 1204.18 Q221.366 1209.51 218.218 1212.73 Q215.07 1215.94 209.838 1215.94 Q203.843 1215.94 200.672 1211.36 Q197.5 1206.75 197.5 1198.03 Q197.5 1189.83 201.389 1184.97 Q205.278 1180.09 211.829 1180.09 Q213.588 1180.09 215.371 1180.43 Q217.176 1180.78 219.121 1181.48 Z" fill="#000000" fill-rule="nonzero" fill-opacity="1" /><path clip-path="url(#clip260)" d="M115.07 967.053 L144.746 967.053 L144.746 970.988 L115.07 970.988 L115.07 967.053 Z" fill="#000000" fill-rule="nonzero" fill-opacity="1" /><path clip-path="url(#clip260)" d="M164.839 952.401 Q161.227 952.401 159.399 955.965 Q157.593 959.507 157.593 966.637 Q157.593 973.743 159.399 977.308 Q161.227 980.849 164.839 980.849 Q168.473 980.849 170.278 977.308 Q172.107 973.743 172.107 966.637 Q172.107 959.507 170.278 955.965 Q168.473 952.401 164.839 952.401 M164.839 948.697 Q170.649 948.697 173.704 953.303 Q176.783 957.887 176.783 966.637 Q176.783 975.363 173.704 979.97 Q170.649 984.553 164.839 984.553 Q159.028 984.553 155.95 979.97 Q152.894 975.363 152.894 966.637 Q152.894 957.887 155.95 953.303 Q159.028 948.697 164.839 948.697 Z" fill="#000000" fill-rule="nonzero" fill-opacity="1" /><path clip-path="url(#clip260)" d="M185.001 978.002 L189.885 978.002 L189.885 983.882 L185.001 983.882 L185.001 978.002 Z" fill="#000000" fill-rule="nonzero" fill-opacity="1" /><path clip-path="url(#clip260)" d="M214.236 965.248 Q217.593 965.965 219.468 968.234 Q221.366 970.502 221.366 973.836 Q221.366 978.951 217.848 981.752 Q214.329 984.553 207.848 984.553 Q205.672 984.553 203.357 984.113 Q201.065 983.697 198.612 982.84 L198.612 978.326 Q200.556 979.461 202.871 980.039 Q205.186 980.618 207.709 980.618 Q212.107 980.618 214.399 978.882 Q216.713 977.146 216.713 973.836 Q216.713 970.78 214.561 969.067 Q212.431 967.331 208.612 967.331 L204.584 967.331 L204.584 963.488 L208.797 963.488 Q212.246 963.488 214.074 962.123 Q215.903 960.734 215.903 958.141 Q215.903 955.479 214.005 954.067 Q212.13 952.632 208.612 952.632 Q206.69 952.632 204.491 953.049 Q202.292 953.465 199.653 954.345 L199.653 950.178 Q202.315 949.438 204.63 949.067 Q206.968 948.697 209.028 948.697 Q214.352 948.697 217.454 951.127 Q220.556 953.535 220.556 957.655 Q220.556 960.526 218.912 962.516 Q217.269 964.484 214.236 965.248 Z" fill="#000000" fill-rule="nonzero" fill-opacity="1" /><path clip-path="url(#clip260)" d="M164.19 721.011 Q160.579 721.011 158.751 724.575 Q156.945 728.117 156.945 735.247 Q156.945 742.353 158.751 745.918 Q160.579 749.46 164.19 749.46 Q167.825 749.46 169.63 745.918 Q171.459 742.353 171.459 735.247 Q171.459 728.117 169.63 724.575 Q167.825 721.011 164.19 721.011 M164.19 717.307 Q170.001 717.307 173.056 721.913 Q176.135 726.497 176.135 735.247 Q176.135 743.973 173.056 748.58 Q170.001 753.163 164.19 753.163 Q158.38 753.163 155.302 748.58 Q152.246 743.973 152.246 735.247 Q152.246 726.497 155.302 721.913 Q158.38 717.307 164.19 717.307 Z" fill="#000000" fill-rule="nonzero" fill-opacity="1" /><path clip-path="url(#clip260)" d="M184.352 746.612 L189.237 746.612 L189.237 752.492 L184.352 752.492 L184.352 746.612 Z" fill="#000000" fill-rule="nonzero" fill-opacity="1" /><path clip-path="url(#clip260)" d="M209.422 721.011 Q205.811 721.011 203.982 724.575 Q202.176 728.117 202.176 735.247 Q202.176 742.353 203.982 745.918 Q205.811 749.46 209.422 749.46 Q213.056 749.46 214.861 745.918 Q216.69 742.353 216.69 735.247 Q216.69 728.117 214.861 724.575 Q213.056 721.011 209.422 721.011 M209.422 717.307 Q215.232 717.307 218.287 721.913 Q221.366 726.497 221.366 735.247 Q221.366 743.973 218.287 748.58 Q215.232 753.163 209.422 753.163 Q203.612 753.163 200.533 748.58 Q197.477 743.973 197.477 735.247 Q197.477 726.497 200.533 721.913 Q203.612 717.307 209.422 717.307 Z" fill="#000000" fill-rule="nonzero" fill-opacity="1" /><path clip-path="url(#clip260)" d="M164.839 489.621 Q161.227 489.621 159.399 493.186 Q157.593 496.727 157.593 503.857 Q157.593 510.963 159.399 514.528 Q161.227 518.07 164.839 518.07 Q168.473 518.07 170.278 514.528 Q172.107 510.963 172.107 503.857 Q172.107 496.727 170.278 493.186 Q168.473 489.621 164.839 489.621 M164.839 485.917 Q170.649 485.917 173.704 490.524 Q176.783 495.107 176.783 503.857 Q176.783 512.584 173.704 517.19 Q170.649 521.773 164.839 521.773 Q159.028 521.773 155.95 517.19 Q152.894 512.584 152.894 503.857 Q152.894 495.107 155.95 490.524 Q159.028 485.917 164.839 485.917 Z" fill="#000000" fill-rule="nonzero" fill-opacity="1" /><path clip-path="url(#clip260)" d="M185.001 515.222 L189.885 515.222 L189.885 521.102 L185.001 521.102 L185.001 515.222 Z" fill="#000000" fill-rule="nonzero" fill-opacity="1" /><path clip-path="url(#clip260)" d="M214.236 502.468 Q217.593 503.185 219.468 505.454 Q221.366 507.723 221.366 511.056 Q221.366 516.172 217.848 518.972 Q214.329 521.773 207.848 521.773 Q205.672 521.773 203.357 521.334 Q201.065 520.917 198.612 520.06 L198.612 515.547 Q200.556 516.681 202.871 517.259 Q205.186 517.838 207.709 517.838 Q212.107 517.838 214.399 516.102 Q216.713 514.366 216.713 511.056 Q216.713 508 214.561 506.287 Q212.431 504.551 208.612 504.551 L204.584 504.551 L204.584 500.709 L208.797 500.709 Q212.246 500.709 214.074 499.343 Q215.903 497.954 215.903 495.361 Q215.903 492.699 214.005 491.287 Q212.13 489.852 208.612 489.852 Q206.69 489.852 204.491 490.269 Q202.292 490.686 199.653 491.565 L199.653 487.399 Q202.315 486.658 204.63 486.287 Q206.968 485.917 209.028 485.917 Q214.352 485.917 217.454 488.348 Q220.556 490.755 220.556 494.875 Q220.556 497.746 218.912 499.736 Q217.269 501.704 214.236 502.468 Z" fill="#000000" fill-rule="nonzero" fill-opacity="1" /><path clip-path="url(#clip260)" d="M164.028 258.231 Q160.417 258.231 158.589 261.796 Q156.783 265.337 156.783 272.467 Q156.783 279.573 158.589 283.138 Q160.417 286.68 164.028 286.68 Q167.663 286.68 169.468 283.138 Q171.297 279.573 171.297 272.467 Q171.297 265.337 169.468 261.796 Q167.663 258.231 164.028 258.231 M164.028 254.527 Q169.839 254.527 172.894 259.134 Q175.973 263.717 175.973 272.467 Q175.973 281.194 172.894 285.8 Q169.839 290.383 164.028 290.383 Q158.218 290.383 155.14 285.8 Q152.084 281.194 152.084 272.467 Q152.084 263.717 155.14 259.134 Q158.218 254.527 164.028 254.527 Z" fill="#000000" fill-rule="nonzero" fill-opacity="1" /><path clip-path="url(#clip260)" d="M184.19 283.833 L189.075 283.833 L189.075 289.712 L184.19 289.712 L184.19 283.833 Z" fill="#000000" fill-rule="nonzero" fill-opacity="1" /><path clip-path="url(#clip260)" d="M209.838 270.569 Q206.69 270.569 204.838 272.722 Q203.01 274.874 203.01 278.624 Q203.01 282.351 204.838 284.527 Q206.69 286.68 209.838 286.68 Q212.986 286.68 214.815 284.527 Q216.667 282.351 216.667 278.624 Q216.667 274.874 214.815 272.722 Q212.986 270.569 209.838 270.569 M219.121 255.916 L219.121 260.175 Q217.361 259.342 215.556 258.902 Q213.774 258.462 212.014 258.462 Q207.385 258.462 204.931 261.587 Q202.5 264.712 202.153 271.032 Q203.519 269.018 205.579 267.953 Q207.639 266.865 210.116 266.865 Q215.324 266.865 218.334 270.036 Q221.366 273.184 221.366 278.624 Q221.366 283.948 218.218 287.166 Q215.07 290.383 209.838 290.383 Q203.843 290.383 200.672 285.8 Q197.5 281.194 197.5 272.467 Q197.5 264.272 201.389 259.411 Q205.278 254.527 211.829 254.527 Q213.588 254.527 215.371 254.874 Q217.176 255.222 219.121 255.916 Z" fill="#000000" fill-rule="nonzero" fill-opacity="1" /><path clip-path="url(#clip260)" d="M29.4065 796.721 L34.9447 796.721 Q33.6716 799.203 33.035 801.877 Q32.3984 804.55 32.3984 807.415 Q32.3984 811.776 33.7352 813.972 Q35.072 816.136 37.7456 816.136 Q39.7826 816.136 40.9603 814.576 Q42.1061 813.017 43.1565 808.306 L43.6021 806.301 Q44.9389 800.063 47.3897 797.453 Q49.8086 794.811 54.1691 794.811 Q59.1344 794.811 62.0308 798.758 Q64.9272 802.673 64.9272 809.548 Q64.9272 812.412 64.3543 815.531 Q63.8132 818.619 62.6992 822.056 L56.6518 822.056 Q58.3387 818.81 59.198 815.659 Q60.0256 812.508 60.0256 809.42 Q60.0256 805.282 58.6251 803.054 Q57.1929 800.826 54.6147 800.826 Q52.2276 800.826 50.9545 802.45 Q49.6813 804.041 48.5037 809.484 L48.0262 811.521 Q46.8804 816.964 44.5251 819.383 Q42.138 821.801 38.0002 821.801 Q32.9713 821.801 30.2341 818.237 Q27.4968 814.672 27.4968 808.115 Q27.4968 804.869 27.9743 802.004 Q28.4517 799.14 29.4065 796.721 Z" fill="#000000" fill-rule="nonzero" fill-opacity="1" /><path clip-path="url(#clip260)" d="M28.3562 785.485 L28.3562 779.629 L64.0042 779.629 L64.0042 785.485 L28.3562 785.485 M14.479 785.485 L14.479 779.629 L21.895 779.629 L21.895 785.485 L14.479 785.485 Z" fill="#000000" fill-rule="nonzero" fill-opacity="1" /><path clip-path="url(#clip260)" d="M42.4881 737.742 L64.0042 737.742 L64.0042 743.599 L42.679 743.599 Q37.6183 743.599 35.1038 745.572 Q32.5894 747.546 32.5894 751.492 Q32.5894 756.235 35.6131 758.972 Q38.6368 761.709 43.8567 761.709 L64.0042 761.709 L64.0042 767.598 L28.3562 767.598 L28.3562 761.709 L33.8944 761.709 Q30.6797 759.609 29.0883 756.776 Q27.4968 753.911 27.4968 750.187 Q27.4968 744.044 31.3163 740.893 Q35.1038 737.742 42.4881 737.742 Z" fill="#000000" fill-rule="nonzero" fill-opacity="1" /><path clip-path="url(#clip260)" d="M14.5426 711.993 Q21.8632 716.258 29.0246 718.327 Q36.186 720.396 43.5384 720.396 Q50.8908 720.396 58.1159 718.327 Q65.3091 716.226 72.5979 711.993 L72.5979 717.086 Q65.1182 721.86 57.8931 724.247 Q50.668 726.602 43.5384 726.602 Q36.4406 726.602 29.2474 724.247 Q22.0542 721.892 14.5426 717.086 L14.5426 711.993 Z" fill="#000000" fill-rule="nonzero" fill-opacity="1" /><path clip-path="url(#clip260)" d="M28.3562 670.998 L45.7028 683.888 L64.0042 670.33 L64.0042 677.236 L49.9996 687.612 L64.0042 697.988 L64.0042 704.895 L45.3526 691.05 L28.3562 703.718 L28.3562 696.811 L41.0558 687.358 L28.3562 677.905 L28.3562 670.998 Z" fill="#000000" fill-rule="nonzero" fill-opacity="1" /><path clip-path="url(#clip260)" d="M14.5426 662.977 L14.5426 657.885 Q22.0542 653.11 29.2474 650.755 Q36.4406 648.368 43.5384 648.368 Q50.668 648.368 57.8931 650.755 Q65.1182 653.11 72.5979 657.885 L72.5979 662.977 Q65.3091 658.744 58.1159 656.675 Q50.8908 654.574 43.5384 654.574 Q36.186 654.574 29.0246 656.675 Q21.8632 658.744 14.5426 662.977 Z" fill="#000000" fill-rule="nonzero" fill-opacity="1" /><polyline clip-path="url(#clip262)" style="stroke:#009af9; stroke-linecap:round; stroke-linejoin:round; stroke-width:4; stroke-opacity:1; fill:none" points="316.67,1384.24 415.509,1339.39 514.348,1288.51 613.187,1232.1 712.026,1170.72 810.865,1104.99 909.704,1035.57 1008.54,963.147 1107.38,888.446 1206.22,812.213 1305.06,735.212 1403.9,658.21 1502.74,581.978 1601.58,507.277 1700.42,434.854 1799.26,365.431 1898.1,299.703 1996.93,238.327 2095.77,181.915 2194.61,131.032 2293.45,86.1857 "/>
<path clip-path="url(#clip260)" d="M327.212 196.789 L589.182 196.789 L589.182 93.1086 L327.212 93.1086  Z" fill="#ffffff" fill-rule="evenodd" fill-opacity="1"/>
<polyline clip-path="url(#clip260)" style="stroke:#000000; stroke-linecap:round; stroke-linejoin:round; stroke-width:4; stroke-opacity:1; fill:none" points="327.212,196.789 589.182,196.789 589.182,93.1086 327.212,93.1086 327.212,196.789 "/>
<polyline clip-path="url(#clip260)" style="stroke:#009af9; stroke-linecap:round; stroke-linejoin:round; stroke-width:4; stroke-opacity:1; fill:none" points="350.495,144.949 490.187,144.949 "/>
<path clip-path="url(#clip260)" d="M527.312 164.636 Q525.506 169.266 523.793 170.678 Q522.08 172.09 519.21 172.09 L515.807 172.09 L515.807 168.525 L518.307 168.525 Q520.066 168.525 521.039 167.692 Q522.011 166.858 523.191 163.756 L523.955 161.812 L513.469 136.303 L517.983 136.303 L526.085 156.581 L534.187 136.303 L538.701 136.303 L527.312 164.636 Z" fill="#000000" fill-rule="nonzero" fill-opacity="1" /><path clip-path="url(#clip260)" d="M545.992 158.293 L553.631 158.293 L553.631 131.928 L545.321 133.595 L545.321 129.335 L553.585 127.669 L558.261 127.669 L558.261 158.293 L565.9 158.293 L565.9 162.229 L545.992 162.229 L545.992 158.293 Z" fill="#000000" fill-rule="nonzero" fill-opacity="1" /></svg>
