<svg viewBox="0 0 112.535433071 112.535433071" width="112.535433071pt" height="112.535433071pt" xmlns="http://www.w3.org/2000/svg" xmlns:xlink="http://www.w3.org/1999/xlink" xmlns:h5="http://www.w3.org/1999/xhtml">
  <path fill="#f9fcf0" fill-rule="nonzero" d="M 0 0v 112.535433071h 112.535433071v -112.535433071Z "/>
  <g transform="matrix(1 0 0 -1 18.699716535 78.667716535)">
    <use xlink:href="#g9E0F1BF6796B7967A416D28DD32F2F5B" x="0" y="0" fill="#2b4403" fill-rule="nonzero"/>
    <use xlink:href="#g934804CB14CC62D238E8850644596365" x="39.872" y="0" fill="#2b4403" fill-rule="nonzero"/>
  </g>
  <defs>
    <symbol id="g9E0F1BF6796B7967A416D28DD32F2F5B" overflow="visible">
      <path d="M 0 0m 4.352 0v 44.8h 16.448q 5.376 0 8.864 -1.824q 3.488 -1.824 5.216 -4.928q 1.728 -3.104 1.728 -6.88q 0 -4.096 -2.144 -7.488q -2.144 -3.392 -6.688 -4.928l 9.28 -18.752h -9.408l -8.32 17.664h -6.784v -17.664h -8.192Z m 8.192 23.68h 7.744q 4.096 0 6.016 1.984q 1.92 1.984 1.92 5.248q 0 3.2 -1.888 5.12q -1.888 1.92 -6.112 1.92h -7.68v -14.272Z "/>
    </symbol>
    <symbol id="g934804CB14CC62D238E8850644596365" overflow="visible">
      <path d="M 0 0m 4.352 0v 44.8h 28.928v -6.592h -20.736v -12.544h 16.768v -6.464h -16.768v -19.2h -8.192Z "/>
    </symbol>
  </defs>
</svg>
